# xmcd CD database file
#
# Track frame offsets:
#	150
#	31330
#	54855
#	73735
#	82292
#	103925
#	140555
#	163377
#	195495
#	216970
#	239287
#	266187
#	288725
#	308090
#
# Disc length: 4431 seconds
#
# Revision: 0
# Processed by: cddbd v1.5.1PL0 Copyright (c) Steve Scherf et al.
# Submitted via: CDex 1.51
#
DISCID=de114d0e
DTITLE=Erik Truffaz - Siegfried
DYEAR=2001
DGENRE=Jazz
TTITLE0=Siegfried
TTITLE1=Sweet mercy
TTITLE2=Friendly fire
TTITLE3=Bokowsky
TTITLE4=Yuri's choice
TTITLE5=Bending new corners
TTITLE6=The mask
TTITLE7=No choice
TTITLE8=Wet in Paris
TTITLE9=Less
TTITLE10=Minaret
TTITLE11=The dawn
TTITLE12=Betty
TTITLE13=Siegfried -goo remix-
EXTD=YEAR: 2001
EXTT0=
EXTT1=
EXTT2=
EXTT3=
EXTT4=
EXTT5=
EXTT6=
EXTT7=
EXTT8=
EXTT9=
EXTT10=
EXTT11=
EXTT12=
EXTT13=
PLAYORDER=
